<svg width="11" height="10" viewBox="0 0 11 10" fill="none" xmlns="http://www.w3.org/2000/svg">
<path d="M7.61737 0.503127L10.4969 3.38263C11.1179 4.00365 10.9478 5.05042 10.1627 5.44313L7.30646 6.87096C7.22733 6.91058 7.16686 6.9796 7.138 7.06325L6.41108 9.16763C6.23125 9.68763 5.56933 9.84011 5.18042 9.45092L3.60417 7.87467L1.10383 10.375H0.625V9.89617L3.12533 7.39584L1.54908 5.81959C1.1599 5.4304 1.31238 4.76848 1.83237 4.58892L3.93675 3.862C4.02045 3.83307 4.08948 3.7725 4.12904 3.69327L5.55687 0.837335C5.94958 0.0519182 6.99635 -0.117894 7.61737 0.503127Z" fill="#6B7280"/>
</svg>
