<svg width="40" height="32" viewBox="0 0 40 32" fill="none" xmlns="http://www.w3.org/2000/svg">
<path d="M39.1772 16C39.1772 16.6361 38.9245 17.2462 38.4747 17.6961C38.0248 18.1459 37.4147 18.3986 36.7786 18.3986L8.67651 18.3986L19.1888 27.8043C19.4257 28.0137 19.6188 28.2679 19.7571 28.5522C19.8954 28.8365 19.9761 29.1454 19.9946 29.461C20.0131 29.7766 19.969 30.0928 19.8649 30.3913C19.7608 30.6898 19.5987 30.9648 19.3879 31.2005C19.1771 31.4361 18.9218 31.6278 18.6367 31.7644C18.3516 31.9011 18.0423 31.98 17.7266 31.9967C17.4109 32.0133 17.095 31.9674 16.797 31.8616C16.4991 31.7557 16.2251 31.592 15.9907 31.3799L0.799489 17.7878C0.547967 17.5628 0.346751 17.2873 0.208988 16.9792C0.0712244 16.6711 1.48817e-05 16.3375 1.48777e-05 16C1.48737e-05 15.6625 0.0712244 15.3289 0.208988 15.0208C0.346751 14.7127 0.547967 14.4372 0.799489 14.2122L15.9907 0.620139C16.2251 0.407995 16.4991 0.244288 16.797 0.138433C17.095 0.0325794 17.4109 -0.013333 17.7266 0.00333668C18.0423 0.0200063 18.3516 0.0989294 18.6367 0.235566C18.9218 0.372203 19.1771 0.563858 19.3879 0.799509C19.5987 1.03516 19.7608 1.31015 19.8649 1.60868C19.969 1.90721 20.0131 2.22337 19.9946 2.53899C19.9761 2.85461 19.8954 3.16346 19.7571 3.44777C19.6188 3.73209 19.4257 3.98626 19.1888 4.19566L8.67651 13.6014L36.7786 13.6014C37.0936 13.6014 37.4055 13.6634 37.6965 13.784C37.9875 13.9045 38.2519 14.0812 38.4747 14.3039C38.6974 14.5267 38.8741 14.7911 38.9946 15.0821C39.1151 15.3731 39.1772 15.685 39.1772 16Z" fill="#111827"/>
</svg>
