<svg width="28" height="28" viewBox="0 0 28 28" fill="none" xmlns="http://www.w3.org/2000/svg">
<path d="M13.0285 1.49179H13.0286L13.0285 1.48495C13.025 1.22744 13.1238 0.979057 13.3033 0.79439C13.4828 0.609724 13.7283 0.503878 13.9858 0.500104C14.1157 0.498202 14.2446 0.522369 14.365 0.571176C14.4854 0.619983 14.5948 0.692438 14.6867 0.784257L15.0379 0.432692L14.6867 0.784258C14.7786 0.876079 14.8512 0.985398 14.9001 1.10575L15.3633 0.917464L14.9001 1.10575C14.949 1.2261 14.9733 1.35505 14.9715 1.48495L14.9715 1.48495V1.49179V12.5281V13.0281H15.4715H26.5076V13.0282L26.5146 13.0281C26.6434 13.0263 26.7712 13.0501 26.8907 13.0981C27.0101 13.1461 27.1189 13.2173 27.2105 13.3077C27.3022 13.3981 27.375 13.5059 27.4247 13.6246C27.4744 13.7434 27.5 13.8709 27.5 13.9997C27.5 14.1284 27.4744 14.2559 27.4247 14.3747C27.375 14.4935 27.3022 14.6012 27.2105 14.6916C27.1189 14.782 27.0101 14.8532 26.8907 14.9013C26.7712 14.9493 26.6434 14.973 26.5146 14.9712V14.9712H26.5076H15.4715H14.9715V15.4712V26.5075H14.9714L14.9715 26.5146C14.9733 26.6433 14.9496 26.7712 14.9016 26.8906L15.3655 27.0771L14.9016 26.8906C14.8535 27.0101 14.7823 27.1189 14.6919 27.2105C14.6015 27.3022 14.4938 27.375 14.375 27.4247C14.2562 27.4744 14.1288 27.5 14 27.5C13.8712 27.5 13.7438 27.4744 13.625 27.4247L13.432 27.886L13.625 27.4247C13.5062 27.375 13.3985 27.3022 13.3081 27.2105C13.2177 27.1189 13.1465 27.0101 13.0984 26.8906C13.0504 26.7712 13.0267 26.6433 13.0285 26.5146L13.0285 26.5146V26.5075V15.4712V14.9712H12.5285H1.49244V14.9711L1.48536 14.9712C1.35663 14.973 1.22881 14.9493 1.10935 14.9013C0.98988 14.8532 0.881145 14.782 0.789461 14.6916C0.697778 14.6012 0.624974 14.4935 0.575282 14.3747C0.52559 14.2559 0.5 14.1284 0.5 13.9997C0.5 13.8709 0.52559 13.7434 0.575282 13.6246C0.624974 13.5059 0.697778 13.3981 0.789461 13.3077C0.881145 13.2173 0.98988 13.1461 1.10935 13.0981C1.22881 13.0501 1.35663 13.0263 1.48536 13.0281L1.48536 13.0281H1.49244H12.5285H13.0285V12.5281V1.49179Z" fill="white" stroke="white"/>
</svg>
