<svg width="36" height="36" viewBox="0 0 36 36" fill="none" xmlns="http://www.w3.org/2000/svg">
<path d="M36 8V6.5C36 2.916 33.084 0 29.5 0H6.5C2.916 0 0 2.916 0 6.5V8H36ZM0 11V29.5C0 33.084 2.916 36 6.5 36H29.5C33.084 36 36 33.084 36 29.5V11H0ZM9.5 30C8.119 30 7 28.881 7 27.5C7 26.119 8.119 25 9.5 25C10.881 25 12 26.119 12 27.5C12 28.881 10.881 30 9.5 30ZM9.5 21C8.119 21 7 19.881 7 18.5C7 17.119 8.119 16 9.5 16C10.881 16 12 17.119 12 18.5C12 19.881 10.881 21 9.5 21ZM18 30C16.619 30 15.5 28.881 15.5 27.5C15.5 26.119 16.619 25 18 25C19.381 25 20.5 26.119 20.5 27.5C20.5 28.881 19.381 30 18 30ZM18 21C16.619 21 15.5 19.881 15.5 18.5C15.5 17.119 16.619 16 18 16C19.381 16 20.5 17.119 20.5 18.5C20.5 19.881 19.381 21 18 21ZM26.5 21C25.119 21 24 19.881 24 18.5C24 17.119 25.119 16 26.5 16C27.881 16 29 17.119 29 18.5C29 19.881 27.881 21 26.5 21Z" fill="black"/>
</svg>
