<svg width="36" height="36" viewBox="0 0 36 36" fill="none" xmlns="http://www.w3.org/2000/svg">
<path d="M6.5 0C2.92806 0 0 2.92806 0 6.5V29.5C0 33.0719 2.92806 36 6.5 36H29.5C33.0719 36 36 33.0719 36 29.5V6.5C36 2.92806 33.0719 0 29.5 0H6.5ZM6.5 3H29.5C31.4501 3 33 4.54994 33 6.5V8H3V6.5C3 4.54994 4.54994 3 6.5 3ZM3 11H33V29.5C33 31.4501 31.4501 33 29.5 33H6.5C4.54994 33 3 31.4501 3 29.5V11ZM9.5 15C8.83696 15 8.20107 15.2634 7.73223 15.7322C7.26339 16.2011 7 16.837 7 17.5C7 18.163 7.26339 18.7989 7.73223 19.2678C8.20107 19.7366 8.83696 20 9.5 20C10.163 20 10.7989 19.7366 11.2678 19.2678C11.7366 18.7989 12 18.163 12 17.5C12 16.837 11.7366 16.2011 11.2678 15.7322C10.7989 15.2634 10.163 15 9.5 15ZM18 15C17.337 15 16.7011 15.2634 16.2322 15.7322C15.7634 16.2011 15.5 16.837 15.5 17.5C15.5 18.163 15.7634 18.7989 16.2322 19.2678C16.7011 19.7366 17.337 20 18 20C18.663 20 19.2989 19.7366 19.7678 19.2678C20.2366 18.7989 20.5 18.163 20.5 17.5C20.5 16.837 20.2366 16.2011 19.7678 15.7322C19.2989 15.2634 18.663 15 18 15ZM26.5 15C25.837 15 25.2011 15.2634 24.7322 15.7322C24.2634 16.2011 24 16.837 24 17.5C24 18.163 24.2634 18.7989 24.7322 19.2678C25.2011 19.7366 25.837 20 26.5 20C27.163 20 27.7989 19.7366 28.2678 19.2678C28.7366 18.7989 29 18.163 29 17.5C29 16.837 28.7366 16.2011 28.2678 15.7322C27.7989 15.2634 27.163 15 26.5 15ZM9.5 24C8.83696 24 8.20107 24.2634 7.73223 24.7322C7.26339 25.2011 7 25.837 7 26.5C7 27.163 7.26339 27.7989 7.73223 28.2678C8.20107 28.7366 8.83696 29 9.5 29C10.163 29 10.7989 28.7366 11.2678 28.2678C11.7366 27.7989 12 27.163 12 26.5C12 25.837 11.7366 25.2011 11.2678 24.7322C10.7989 24.2634 10.163 24 9.5 24ZM18 24C17.337 24 16.7011 24.2634 16.2322 24.7322C15.7634 25.2011 15.5 25.837 15.5 26.5C15.5 27.163 15.7634 27.7989 16.2322 28.2678C16.7011 28.7366 17.337 29 18 29C18.663 29 19.2989 28.7366 19.7678 28.2678C20.2366 27.7989 20.5 27.163 20.5 26.5C20.5 25.837 20.2366 25.2011 19.7678 24.7322C19.2989 24.2634 18.663 24 18 24Z" fill="black"/>
</svg>
