<svg width="28" height="27" viewBox="0 0 28 27" fill="none" xmlns="http://www.w3.org/2000/svg">
<path d="M11.5309 0C10.412 0 9.37359 0.605322 8.81016 1.58619L7.27207 4.26316H4.55C2.04964 4.26316 0 6.34362 0 8.88158V22.3816C0 24.9195 2.04964 27 4.55 27H23.45C25.9504 27 28 24.9195 28 22.3816V8.88158C28 6.34362 25.9504 4.26316 23.45 4.26316H20.7279L19.1898 1.58619C18.6264 0.605322 17.588 0 16.4691 0H11.5309ZM11.5309 2.13158H16.4691C16.8441 2.13158 17.1872 2.33239 17.3756 2.66031L19.2186 5.866C19.311 6.02681 19.4433 6.16024 19.6023 6.25301C19.7614 6.34577 19.9416 6.39464 20.125 6.39474H23.45C24.815 6.39474 25.9 7.49601 25.9 8.88158V22.3816C25.9 23.7671 24.815 24.8684 23.45 24.8684H4.55C3.18496 24.8684 2.1 23.7671 2.1 22.3816V8.88158C2.1 7.49601 3.18496 6.39474 4.55 6.39474H7.875C8.05842 6.39464 8.23862 6.34577 8.39765 6.25301C8.55669 6.16024 8.68901 6.02681 8.78145 5.866L10.6244 2.66031C10.8128 2.33239 11.1559 2.13158 11.5309 2.13158ZM14 8.52632C10.533 8.52632 7.7 11.402 7.7 14.9211C7.7 18.4401 10.533 21.3158 14 21.3158C17.467 21.3158 20.3 18.4401 20.3 14.9211C20.3 11.402 17.467 8.52632 14 8.52632ZM14 10.6579C16.332 10.6579 18.2 12.554 18.2 14.9211C18.2 17.2882 16.332 19.1842 14 19.1842C11.668 19.1842 9.8 17.2882 9.8 14.9211C9.8 12.554 11.668 10.6579 14 10.6579Z" fill="#6366F1"/>
</svg>
