<svg width="40" height="38" viewBox="0 0 40 38" fill="none" xmlns="http://www.w3.org/2000/svg">
<path d="M16.4727 0C14.8743 0 13.3908 0.851935 12.5859 2.23242L10.3887 6H6.5C2.92806 6 0 8.92806 0 12.5V31.5C0 35.0719 2.92806 38 6.5 38H33.5C37.0719 38 40 35.0719 40 31.5V12.5C40 8.92806 37.0719 6 33.5 6H29.6113L27.4141 2.23242C26.6092 0.851935 25.1257 0 23.5273 0H16.4727ZM16.4727 3H23.5273C24.0629 3 24.5532 3.28263 24.8223 3.74414L27.4551 8.25586C27.5871 8.48218 27.7762 8.66997 28.0034 8.80053C28.2305 8.93109 28.488 8.99986 28.75 9H33.5C35.4501 9 37 10.5499 37 12.5V31.5C37 33.4501 35.4501 35 33.5 35H6.5C4.54994 35 3 33.4501 3 31.5V12.5C3 10.5499 4.54994 9 6.5 9H11.25C11.512 8.99986 11.7695 8.93109 11.9966 8.80053C12.2238 8.66997 12.4129 8.48218 12.5449 8.25586L15.1777 3.74414C15.4468 3.28263 15.9371 3 16.4727 3ZM20 12C15.0472 12 11 16.0472 11 21C11 25.9528 15.0472 30 20 30C24.9528 30 29 25.9528 29 21C29 16.0472 24.9528 12 20 12ZM20 15C23.3315 15 26 17.6685 26 21C26 24.3315 23.3315 27 20 27C16.6685 27 14 24.3315 14 21C14 17.6685 16.6685 15 20 15Z" fill="black"/>
</svg>
