<svg width="30" height="30" viewBox="0 0 30 30" fill="none" xmlns="http://www.w3.org/2000/svg">
<path d="M25.9006 1.8578L25.9006 1.85783L25.9042 1.85415C26.2046 1.54542 26.6153 1.36858 27.046 1.36248C27.4767 1.35638 27.8922 1.52152 28.2012 1.82161C28.3571 1.97299 28.481 2.1541 28.5657 2.35422C28.6504 2.55435 28.6941 2.76942 28.6942 2.98671C28.6943 3.20401 28.6508 3.41912 28.5663 3.61933C28.4818 3.81953 28.3581 4.00076 28.2023 4.1523L28.2023 4.15227L28.1987 4.1559L17.5921 14.7625L17.3269 15.0277L17.5921 15.2928L28.1987 25.8995L28.2025 25.9032C28.3569 26.0533 28.4799 26.2326 28.5644 26.4307C28.649 26.6287 28.6933 26.8416 28.6948 27.057C28.6963 27.2723 28.655 27.4859 28.5733 27.6851C28.4916 27.8844 28.3711 28.0654 28.2188 28.2177C28.0665 28.37 27.8855 28.4905 27.6863 28.5722C27.487 28.6539 27.2735 28.6952 27.0581 28.6936C26.8428 28.6921 26.6299 28.6478 26.4318 28.5633C26.2337 28.4788 26.0544 28.3557 25.9043 28.2013L25.9043 28.2013L25.9006 28.1975L15.294 17.5909L15.0288 17.3258L14.7637 17.5909L4.15703 28.1975L4.15333 28.2013C4.00322 28.3557 3.82391 28.4788 3.62584 28.5633C3.42775 28.6478 3.21485 28.6921 2.9995 28.6936C2.78414 28.6952 2.57064 28.6539 2.37138 28.5722C2.17213 28.4905 1.9911 28.37 1.83882 28.2177C1.68654 28.0654 1.56604 27.8844 1.48433 27.6851C1.40262 27.4859 1.36132 27.2723 1.36285 27.057C1.36437 26.8416 1.40868 26.6287 1.4932 26.4307C1.57772 26.2326 1.70076 26.0533 1.85518 25.9032L1.85521 25.9032L1.85896 25.8994L12.4656 15.2928L12.7307 15.0277L12.4656 14.7625L1.85896 4.1559L1.85899 4.15587L1.85518 4.15218C1.70076 4.00206 1.57772 3.82276 1.4932 3.62468C1.40868 3.4266 1.36437 3.2137 1.36285 2.99834C1.36133 2.78299 1.40262 2.56948 1.48433 2.37023C1.56604 2.17097 1.68654 1.98994 1.83882 1.83766C1.9911 1.68538 2.17213 1.56488 2.37138 1.48317C2.57064 1.40146 2.78415 1.36017 2.9995 1.36169C3.21485 1.36321 3.42776 1.40752 3.62584 1.49204C3.82391 1.57656 4.00322 1.69961 4.15333 1.85403L4.15331 1.85405L4.15706 1.8578L14.7637 12.4644L15.0288 12.7296L15.294 12.4644L25.9006 1.8578Z" fill="black" stroke="black" stroke-width="0.75"/>
</svg>
