<svg width="280" height="77" viewBox="0 0 280 77" fill="none" xmlns="http://www.w3.org/2000/svg">
<g clip-path="url(#clip0_12:18)">
<path fill-rule="evenodd" clip-rule="evenodd" d="M29.8427 0.104682C29.9983 0.0935228 32.5778 0.0935228 37.5811 0.104682C42.5843 0.115664 45.0748 0.115664 45.0526 0.104682C50.9113 -0.413601 54.8373 0.992637 56.8306 4.32339C56.8469 4.35049 56.8685 4.38211 56.8896 4.41373C56.904 4.43578 56.9232 4.46208 56.9312 4.47616C56.9392 4.48998 56.9691 4.52027 56.9771 4.53409C56.9561 4.51637 56.9517 4.51389 56.9638 4.52665C56.9742 4.53727 56.9843 4.5479 56.9945 4.55853C58.5686 6.22258 59.1687 8.85615 58.7949 12.4595C58.182 15.4805 56.8033 17.7389 54.6588 19.2347C50.8638 21.8325 45.1712 22.541 37.5811 21.3603C25.2945 20.994 16.7111 24.3152 11.831 31.3239C7.86891 35.7923 5.33393 41.6819 4.226 48.9926C0.996702 44.3257 -0.381973 37.8162 0.0899788 29.464C1.61933 19.9162 5.48851 12.6981 11.6975 7.80984C16.1979 3.70007 22.2463 1.13168 29.8427 0.104682ZM21.3038 30.3939C21.4039 30.3247 21.4985 30.3011 21.5874 30.3232C21.7209 30.3565 21.7123 30.4893 21.7019 30.5268C21.6915 30.564 21.6856 30.556 21.6766 30.5709C21.2414 31.2808 21.1399 32.1627 21.1621 32.9759C21.2827 37.4181 23.8753 41.683 27.8966 43.6402C29.5468 44.4431 31.3623 44.8634 33.1803 45.0547C38.5974 45.6244 43.9028 43.8501 49.3156 44.6564C52.744 45.1671 55.6942 47.0498 57.5482 49.9679C60.8103 55.102 58.2396 62.1968 53.1605 65.0031C52.031 65.6272 50.6749 65.5911 49.3887 65.7314C48.4246 65.8363 47.6204 65.9166 46.687 65.9639C46.4367 65.9763 46.1701 65.9843 45.8865 65.9971C45.867 65.9979 45.8475 65.9984 45.8283 65.9989C45.7888 65.9997 45.7498 65.9891 45.7114 65.9886C45.6001 65.9875 45.4915 65.9933 45.3779 65.9928C45.257 65.9949 45.2001 65.9949 45.1609 65.9971C45.122 65.9989 45.1003 66.0026 45.0526 65.9971H29.309C24.0899 65.4625 18.8264 63.7783 15.033 60.0189L14.8329 59.7532L15.0456 60.0312L14.4994 59.4875C6.53711 52.0529 10.9112 38.4958 18.3685 32.5195L21.3038 30.3939Z" fill="white"/>
</g>
<path d="M63.5469 52.0859C63.5469 49.5703 64.0312 47.3281 65 45.3594C65.9688 43.3906 67.3594 41.8672 69.1719 40.7891C71 39.7109 73.1172 39.1719 75.5234 39.1719C78.9453 39.1719 81.7344 40.2188 83.8906 42.3125C86.0625 44.4062 87.2734 47.25 87.5234 50.8438L87.5703 52.5781C87.5703 56.4688 86.4844 59.5938 84.3125 61.9531C82.1406 64.2969 79.2266 65.4688 75.5703 65.4688C71.9141 65.4688 68.9922 64.2969 66.8047 61.9531C64.6328 59.6094 63.5469 56.4219 63.5469 52.3906V52.0859ZM70.3203 52.5781C70.3203 54.9844 70.7734 56.8281 71.6797 58.1094C72.5859 59.375 73.8828 60.0078 75.5703 60.0078C77.2109 60.0078 78.4922 59.3828 79.4141 58.1328C80.3359 56.8672 80.7969 54.8516 80.7969 52.0859C80.7969 49.7266 80.3359 47.8984 79.4141 46.6016C78.4922 45.3047 77.1953 44.6562 75.5234 44.6562C73.8672 44.6562 72.5859 45.3047 71.6797 46.6016C70.7734 47.8828 70.3203 49.875 70.3203 52.5781ZM98.0938 39.6406L98.3047 42.4766C100.102 40.2734 102.531 39.1719 105.594 39.1719C108.859 39.1719 111.102 40.4609 112.32 43.0391C114.102 40.4609 116.641 39.1719 119.938 39.1719C122.688 39.1719 124.734 39.9766 126.078 41.5859C127.422 43.1797 128.094 45.5859 128.094 48.8047V65H121.297V48.8281C121.297 47.3906 121.016 46.3438 120.453 45.6875C119.891 45.0156 118.898 44.6797 117.477 44.6797C115.445 44.6797 114.039 45.6484 113.258 47.5859L113.281 65H106.508V48.8516C106.508 47.3828 106.219 46.3203 105.641 45.6641C105.062 45.0078 104.078 44.6797 102.688 44.6797C100.766 44.6797 99.375 45.4766 98.5156 47.0703V65H91.7422V39.6406H98.0938ZM139.672 39.6406L139.883 42.4766C141.68 40.2734 144.109 39.1719 147.172 39.1719C150.438 39.1719 152.68 40.4609 153.898 43.0391C155.68 40.4609 158.219 39.1719 161.516 39.1719C164.266 39.1719 166.312 39.9766 167.656 41.5859C169 43.1797 169.672 45.5859 169.672 48.8047V65H162.875V48.8281C162.875 47.3906 162.594 46.3438 162.031 45.6875C161.469 45.0156 160.477 44.6797 159.055 44.6797C157.023 44.6797 155.617 45.6484 154.836 47.5859L154.859 65H148.086V48.8516C148.086 47.3828 147.797 46.3203 147.219 45.6641C146.641 45.0078 145.656 44.6797 144.266 44.6797C142.344 44.6797 140.953 45.4766 140.094 47.0703V65H133.32V39.6406H139.672ZM190.086 62.4219C188.414 64.4531 186.102 65.4688 183.148 65.4688C180.43 65.4688 178.352 64.6875 176.914 63.125C175.492 61.5625 174.766 59.2734 174.734 56.2578V39.6406H181.508V56.0234C181.508 58.6641 182.711 59.9844 185.117 59.9844C187.414 59.9844 188.992 59.1875 189.852 57.5938V39.6406H196.648V65H190.273L190.086 62.4219ZM207.992 39.6406L208.203 42.5703C210.016 40.3047 212.445 39.1719 215.492 39.1719C218.18 39.1719 220.18 39.9609 221.492 41.5391C222.805 43.1172 223.477 45.4766 223.508 48.6172V65H216.734V48.7812C216.734 47.3438 216.422 46.3047 215.797 45.6641C215.172 45.0078 214.133 44.6797 212.68 44.6797C210.773 44.6797 209.344 45.4922 208.391 47.1172V65H201.617V39.6406H207.992ZM235.812 65H229.016V39.6406H235.812V65ZM228.617 33.0781C228.617 32.0625 228.953 31.2266 229.625 30.5703C230.312 29.9141 231.242 29.5859 232.414 29.5859C233.57 29.5859 234.492 29.9141 235.18 30.5703C235.867 31.2266 236.211 32.0625 236.211 33.0781C236.211 34.1094 235.859 34.9531 235.156 35.6094C234.469 36.2656 233.555 36.5938 232.414 36.5938C231.273 36.5938 230.352 36.2656 229.648 35.6094C228.961 34.9531 228.617 34.1094 228.617 33.0781ZM249.523 33.4062V39.6406H253.859V44.6094H249.523V57.2656C249.523 58.2031 249.703 58.875 250.062 59.2812C250.422 59.6875 251.109 59.8906 252.125 59.8906C252.875 59.8906 253.539 59.8359 254.117 59.7266V64.8594C252.789 65.2656 251.422 65.4688 250.016 65.4688C245.266 65.4688 242.844 63.0703 242.75 58.2734V44.6094H239.047V39.6406H242.75V33.4062H249.523ZM267.102 55.4141L271.789 39.6406H279.055L268.859 68.9375L268.297 70.2734C266.781 73.5859 264.281 75.2422 260.797 75.2422C259.812 75.2422 258.812 75.0938 257.797 74.7969V69.6641L258.828 69.6875C260.109 69.6875 261.062 69.4922 261.688 69.1016C262.328 68.7109 262.828 68.0625 263.188 67.1562L263.984 65.0703L255.102 39.6406H262.391L267.102 55.4141Z" fill="white"/>
<defs>
<clipPath id="clip0_12:18">
<rect width="59" height="66" fill="white"/>
</clipPath>
</defs>
</svg>