<svg width="16" height="15" viewBox="0 0 16 15" fill="none" xmlns="http://www.w3.org/2000/svg">
<path d="M2.6 0C1.17122 0 0 1.15691 0 2.56822V9.28509C0 10.6964 1.17122 11.8533 2.6 11.8533H3.2V14.0264C3.2 14.8032 4.17092 15.2824 4.8 14.8166L8.8 11.8533H13.4C14.8288 11.8533 16 10.6964 16 9.28509V2.56822C16 1.15691 14.8288 0 13.4 0H2.6ZM2.6 1.18533H13.4C14.18 1.18533 14.8 1.79773 14.8 2.56822V9.28509C14.8 10.0556 14.18 10.668 13.4 10.668H8.6C8.47009 10.668 8.34371 10.7097 8.23984 10.7868L4.4 13.6313V11.2606C4.39998 11.1035 4.33676 10.9527 4.22425 10.8416C4.11173 10.7304 3.95913 10.668 3.8 10.668H2.6C1.81998 10.668 1.2 10.0556 1.2 9.28509V2.56822C1.2 1.79773 1.81998 1.18533 2.6 1.18533ZM4.6 3.95033C4.52049 3.94922 4.44156 3.96373 4.36777 3.99301C4.29399 4.0223 4.22684 4.06578 4.17022 4.12092C4.1136 4.17607 4.06864 4.24178 4.03795 4.31423C4.00726 4.38669 3.99145 4.46445 3.99145 4.54299C3.99145 4.62154 4.00726 4.6993 4.03795 4.77175C4.06864 4.84421 4.1136 4.90992 4.17022 4.96507C4.22684 5.02021 4.29399 5.06369 4.36777 5.09298C4.44156 5.12226 4.52049 5.13677 4.6 5.13566H11.4C11.4795 5.13677 11.5584 5.12226 11.6322 5.09298C11.706 5.06369 11.7732 5.02021 11.8298 4.96507C11.8864 4.90992 11.9314 4.84421 11.9621 4.77175C11.9927 4.6993 12.0085 4.62154 12.0085 4.54299C12.0085 4.46445 11.9927 4.38669 11.9621 4.31423C11.9314 4.24178 11.8864 4.17607 11.8298 4.12092C11.7732 4.06578 11.706 4.0223 11.6322 3.99301C11.5584 3.96373 11.4795 3.94922 11.4 3.95033H4.6ZM4.6 6.7161C4.52049 6.71499 4.44156 6.7295 4.36777 6.75878C4.29399 6.78807 4.22684 6.83155 4.17022 6.88669C4.1136 6.94184 4.06864 7.00755 4.03795 7.08C4.00726 7.15246 3.99145 7.23022 3.99145 7.30876C3.99145 7.38731 4.00726 7.46507 4.03795 7.53752C4.06864 7.60998 4.1136 7.67569 4.17022 7.73084C4.22684 7.78598 4.29399 7.82946 4.36777 7.85875C4.44156 7.88803 4.52049 7.90254 4.6 7.90143H9.8C9.87951 7.90254 9.95844 7.88803 10.0322 7.85875C10.106 7.82946 10.1732 7.78598 10.2298 7.73084C10.2864 7.67569 10.3314 7.60998 10.3621 7.53752C10.3927 7.46507 10.4085 7.38731 10.4085 7.30876C10.4085 7.23022 10.3927 7.15246 10.3621 7.08C10.3314 7.00755 10.2864 6.94184 10.2298 6.88669C10.1732 6.83155 10.106 6.78807 10.0322 6.75878C9.95844 6.7295 9.87951 6.71499 9.8 6.7161H4.6Z" fill="#6B7280"/>
</svg>
