<?xml version="1.0" encoding="UTF-8" standalone="no"?>
<svg xmlns="http://www.w3.org/2000/svg" xmlns:xlink="http://www.w3.org/1999/xlink" style="isolation:isolate" viewBox="203.629 173.741 221.106 248.405" width="221.106pt" height="248.405pt">
    <defs>
        <clipPath id="_clipPath_zHIfijQvYiRpF4AQqsrfAGgkir4xkhv3">
            <rect x="203.629" y="173.741" width="221.106" height="248.405"/>
        </clipPath>
    </defs>
    <g clip-path="url(#_clipPath_zHIfijQvYiRpF4AQqsrfAGgkir4xkhv3)">
        <path d=" M 315.467 174.135 Q 316.342 174.072 344.467 174.135 Q 372.592 174.197 372.467 174.135 Q 405.401 171.209 416.606 190.013 C 416.667 190.115 416.748 190.234 416.827 190.353 C 416.881 190.436 416.953 190.535 416.983 190.588 C 417.013 190.64 417.125 190.754 417.155 190.806 Q 417.037 190.706 417.105 190.778 C 417.144 190.818 417.182 190.858 417.22 190.898 C 423.119 197.161 425.368 207.073 423.967 220.635 Q 420.522 237.69 408.467 246.135 Q 387.134 260.801 344.467 254.135 Q 275.4 252.067 247.967 291.635 Q 225.695 316.862 219.467 358.135 Q 201.314 331.788 203.967 284.635 Q 212.564 230.732 247.467 203.135 Q 272.765 179.933 315.467 174.135 Z  M 283.467 288.135 Q 284.03 287.744 284.53 287.869 C 285.03 287.994 284.998 288.494 284.959 288.635 C 284.92 288.775 284.898 288.745 284.864 288.801 C 283.233 291.473 282.853 294.792 282.936 297.853 C 283.388 314.572 293.104 330.624 308.174 337.99 C 314.358 341.012 321.162 342.594 327.975 343.314 C 348.276 345.458 368.158 338.78 388.443 341.815 C 401.291 343.737 412.347 350.823 419.295 361.806 C 431.52 381.129 421.886 407.832 402.852 418.394 C 398.619 420.743 393.537 420.607 388.717 421.135 C 385.104 421.53 382.09 421.832 378.592 422.01 C 377.654 422.057 376.655 422.087 375.592 422.135 C 375.519 422.138 375.446 422.14 375.374 422.142 C 375.226 422.145 375.08 422.105 374.936 422.103 C 374.519 422.099 374.112 422.121 373.686 422.119 C 373.233 422.127 373.02 422.127 372.873 422.135 C 372.727 422.142 372.646 422.156 372.467 422.135 L 372.467 422.135 L 313.467 422.135 C 293.908 420.123 274.183 413.784 259.967 399.635 L 259.967 399.635 L 259.217 398.635 L 260.014 399.681 L 257.967 397.635 C 228.128 369.653 244.52 318.628 272.467 296.135 L 272.467 296.135 L 283.467 288.135 Z "/>
    </g>
</svg>