<svg width="16" height="18" viewBox="0 0 16 18" fill="none" xmlns="http://www.w3.org/2000/svg">
<mask id="path-1-inside-1_146_214" fill="white">
<path d="M6.88889 6.58586e-05C6.80055 -0.00116827 6.71284 0.0149534 6.63086 0.0474941C6.54888 0.0800347 6.47427 0.128345 6.41135 0.189618C6.34844 0.250891 6.29848 0.323905 6.26438 0.404415C6.23029 0.484926 6.21273 0.571328 6.21273 0.6586C6.21273 0.745872 6.23029 0.832274 6.26438 0.912785C6.29848 0.993296 6.34844 1.06631 6.41135 1.12758C6.47427 1.18885 6.54888 1.23717 6.63086 1.26971C6.71284 1.30225 6.80055 1.31837 6.88889 1.31713H7.33333V2.22862C3.23422 2.56515 0 5.96324 0 10.0976C0 14.4542 3.58962 18 8 18C12.4104 18 16 14.4542 16 10.0976C16 8.15589 15.2843 6.37826 14.1033 5.00081L14.9141 4.19908C15.0102 4.10655 15.0759 3.9875 15.1024 3.8575C15.129 3.72751 15.1152 3.59262 15.0629 3.4705C15.0105 3.34838 14.9221 3.24471 14.8091 3.17306C14.6961 3.10141 14.5639 3.06512 14.4297 3.06894C14.2566 3.07392 14.0922 3.14527 13.9714 3.26787L13.1597 4.06874C11.9249 3.03569 10.3715 2.36859 8.66667 2.22862V1.31713H9.11111C9.19945 1.31837 9.28716 1.30225 9.36914 1.26971C9.45112 1.23717 9.52573 1.18885 9.58865 1.12758C9.65156 1.06631 9.70152 0.993296 9.73562 0.912785C9.76971 0.832274 9.78727 0.745872 9.78727 0.6586C9.78727 0.571328 9.76971 0.484926 9.73562 0.404415C9.70152 0.323905 9.65156 0.250891 9.58865 0.189618C9.52573 0.128345 9.45112 0.0800347 9.36914 0.0474941C9.28716 0.0149534 9.19945 -0.00116827 9.11111 6.58586e-05H6.88889ZM7.92101 3.51654C7.97463 3.523 8.02884 3.523 8.08247 3.51654C9.87559 3.5381 11.4947 4.25207 12.6788 5.40382C12.7005 5.42867 12.724 5.45188 12.7491 5.47327C13.9347 6.66129 14.6667 8.29229 14.6667 10.0976C14.6667 13.7424 11.6898 16.6829 8 16.6829C4.3102 16.6829 1.33333 13.7424 1.33333 10.0976C1.33333 6.47915 4.26823 3.55862 7.92101 3.51654ZM10.8759 6.57941C10.7027 6.58439 10.5384 6.65574 10.4175 6.77834L8.34375 8.82683C8.2317 8.79667 8.11614 8.7811 8 8.78052C7.64638 8.78052 7.30724 8.91928 7.05719 9.16628C6.80714 9.41328 6.66667 9.74828 6.66667 10.0976C6.66667 10.4469 6.80714 10.7819 7.05719 11.0289C7.30724 11.2759 7.64638 11.4147 8 11.4147C8.20442 11.4146 8.40607 11.368 8.58938 11.2787C8.77269 11.1893 8.93274 11.0595 9.05717 10.8993C9.18159 10.7391 9.26707 10.5528 9.30697 10.3547C9.34688 10.1567 9.34016 9.95224 9.28733 9.75718L11.3602 7.70955C11.4564 7.61702 11.5221 7.49797 11.5486 7.36797C11.5752 7.23797 11.5614 7.10309 11.509 6.98097C11.4567 6.85884 11.3683 6.75517 11.2553 6.68353C11.1423 6.61188 11.0101 6.57559 10.8759 6.57941Z"/>
</mask>
<path d="M6.88889 6.58586e-05C6.80055 -0.00116827 6.71284 0.0149534 6.63086 0.0474941C6.54888 0.0800347 6.47427 0.128345 6.41135 0.189618C6.34844 0.250891 6.29848 0.323905 6.26438 0.404415C6.23029 0.484926 6.21273 0.571328 6.21273 0.6586C6.21273 0.745872 6.23029 0.832274 6.26438 0.912785C6.29848 0.993296 6.34844 1.06631 6.41135 1.12758C6.47427 1.18885 6.54888 1.23717 6.63086 1.26971C6.71284 1.30225 6.80055 1.31837 6.88889 1.31713H7.33333V2.22862C3.23422 2.56515 0 5.96324 0 10.0976C0 14.4542 3.58962 18 8 18C12.4104 18 16 14.4542 16 10.0976C16 8.15589 15.2843 6.37826 14.1033 5.00081L14.9141 4.19908C15.0102 4.10655 15.0759 3.9875 15.1024 3.8575C15.129 3.72751 15.1152 3.59262 15.0629 3.4705C15.0105 3.34838 14.9221 3.24471 14.8091 3.17306C14.6961 3.10141 14.5639 3.06512 14.4297 3.06894C14.2566 3.07392 14.0922 3.14527 13.9714 3.26787L13.1597 4.06874C11.9249 3.03569 10.3715 2.36859 8.66667 2.22862V1.31713H9.11111C9.19945 1.31837 9.28716 1.30225 9.36914 1.26971C9.45112 1.23717 9.52573 1.18885 9.58865 1.12758C9.65156 1.06631 9.70152 0.993296 9.73562 0.912785C9.76971 0.832274 9.78727 0.745872 9.78727 0.6586C9.78727 0.571328 9.76971 0.484926 9.73562 0.404415C9.70152 0.323905 9.65156 0.250891 9.58865 0.189618C9.52573 0.128345 9.45112 0.0800347 9.36914 0.0474941C9.28716 0.0149534 9.19945 -0.00116827 9.11111 6.58586e-05H6.88889ZM7.92101 3.51654C7.97463 3.523 8.02884 3.523 8.08247 3.51654C9.87559 3.5381 11.4947 4.25207 12.6788 5.40382C12.7005 5.42867 12.724 5.45188 12.7491 5.47327C13.9347 6.66129 14.6667 8.29229 14.6667 10.0976C14.6667 13.7424 11.6898 16.6829 8 16.6829C4.3102 16.6829 1.33333 13.7424 1.33333 10.0976C1.33333 6.47915 4.26823 3.55862 7.92101 3.51654ZM10.8759 6.57941C10.7027 6.58439 10.5384 6.65574 10.4175 6.77834L8.34375 8.82683C8.2317 8.79667 8.11614 8.7811 8 8.78052C7.64638 8.78052 7.30724 8.91928 7.05719 9.16628C6.80714 9.41328 6.66667 9.74828 6.66667 10.0976C6.66667 10.4469 6.80714 10.7819 7.05719 11.0289C7.30724 11.2759 7.64638 11.4147 8 11.4147C8.20442 11.4146 8.40607 11.368 8.58938 11.2787C8.77269 11.1893 8.93274 11.0595 9.05717 10.8993C9.18159 10.7391 9.26707 10.5528 9.30697 10.3547C9.34688 10.1567 9.34016 9.95224 9.28733 9.75718L11.3602 7.70955C11.4564 7.61702 11.5221 7.49797 11.5486 7.36797C11.5752 7.23797 11.5614 7.10309 11.509 6.98097C11.4567 6.85884 11.3683 6.75517 11.2553 6.68353C11.1423 6.61188 11.0101 6.57559 10.8759 6.57941Z" fill="black"/>
<path d="M6.88889 6.58586e-05L6.86095 1.99987L6.87492 2.00007H6.88889V6.58586e-05ZM6.21273 0.6586H8.21273H6.21273ZM6.88889 1.31713V-0.682866H6.87492L6.86095 -0.682671L6.88889 1.31713ZM7.33333 1.31713H9.33333V-0.682866H7.33333V1.31713ZM7.33333 2.22862L7.49698 4.22191L9.33333 4.07115V2.22862H7.33333ZM14.1033 5.00081L12.697 3.5787L11.3725 4.88844L12.5849 6.30258L14.1033 5.00081ZM14.9141 4.19908L13.5275 2.75777L13.5176 2.7673L13.5078 2.77697L14.9141 4.19908ZM14.4297 3.06894L14.3728 1.06975L14.3721 1.06977L14.4297 3.06894ZM13.9714 3.26787L15.3761 4.69149L15.3861 4.68165L15.3959 4.67168L13.9714 3.26787ZM13.1597 4.06874L11.8764 5.60274L13.2706 6.76907L14.5645 5.49236L13.1597 4.06874ZM8.66667 2.22862H6.66667V4.07115L8.50302 4.22191L8.66667 2.22862ZM8.66667 1.31713V-0.682866H6.66667V1.31713H8.66667ZM9.11111 1.31713L9.13905 -0.682671L9.12508 -0.682866H9.11111V1.31713ZM9.78727 0.6586H7.78727H9.78727ZM9.11111 6.58586e-05V2.00007H9.12508L9.13905 1.99987L9.11111 6.58586e-05ZM7.92101 3.51654L8.16026 1.5309L8.02958 1.51515L7.89796 1.51667L7.92101 3.51654ZM8.08247 3.51654L8.10652 1.51668L7.9744 1.51509L7.84321 1.5309L8.08247 3.51654ZM12.6788 5.40382L14.1865 4.08974L14.1324 4.02761L14.0733 3.97014L12.6788 5.40382ZM12.7491 5.47327L14.1648 4.06053L14.1071 4.00268L14.0448 3.94973L12.7491 5.47327ZM10.4175 6.77834L11.823 8.2012L11.8326 8.19174L11.8421 8.18215L10.4175 6.77834ZM8.34375 8.82683L7.82399 10.7581L8.93254 11.0564L9.74926 10.2497L8.34375 8.82683ZM8 8.78052L8.00999 6.78052H8V8.78052ZM6.66667 10.0976H4.66667H6.66667ZM8 11.4147V13.4147L8.00104 13.4147L8 11.4147ZM9.28733 9.75718L7.88182 8.33431L7.05191 9.1541L7.35689 10.2801L9.28733 9.75718ZM11.3602 7.70955L9.97365 6.26824L9.96413 6.2774L9.95473 6.28668L11.3602 7.70955ZM6.91683 -1.99974C6.5669 -2.00463 6.21896 -1.94081 5.89299 -1.81141L7.36873 1.9064C7.20672 1.97071 7.03419 2.00229 6.86095 1.99987L6.91683 -1.99974ZM5.89299 -1.81141C5.56697 -1.682 5.26863 -1.48925 5.01594 -1.24315L7.80677 1.62238C7.6799 1.74594 7.5308 1.84207 7.36873 1.9064L5.89299 -1.81141ZM5.01594 -1.24315C4.7632 -0.996993 4.56114 -0.702318 4.42275 -0.37557L8.10602 1.1844C8.03583 1.35013 7.93369 1.49878 7.80677 1.62238L5.01594 -1.24315ZM4.42275 -0.37557C4.28434 -0.0487672 4.21273 0.302841 4.21273 0.6586H8.21273C8.21273 0.839814 8.17623 1.01862 8.10602 1.1844L4.42275 -0.37557ZM4.21273 0.6586C4.21273 1.01436 4.28434 1.36597 4.42275 1.69277L8.10602 0.1328C8.17623 0.298582 8.21273 0.477386 8.21273 0.6586H4.21273ZM4.42275 1.69277C4.56114 2.01952 4.7632 2.31419 5.01594 2.56035L7.80677 -0.305184C7.93369 -0.181576 8.03583 -0.0329276 8.10602 0.1328L4.42275 1.69277ZM5.01594 2.56035C5.26863 2.80645 5.56697 2.99921 5.89299 3.12861L7.36873 -0.589203C7.5308 -0.524874 7.6799 -0.428744 7.80677 -0.305184L5.01594 2.56035ZM5.89299 3.12861C6.21896 3.25801 6.5669 3.32183 6.91683 3.31694L6.86095 -0.682671C7.03419 -0.685091 7.20672 -0.653514 7.36873 -0.589203L5.89299 3.12861ZM6.88889 3.31713H7.33333V-0.682866H6.88889V3.31713ZM5.33333 1.31713V2.22862H9.33333V1.31713H5.33333ZM7.16969 0.235328C2.06538 0.654386 -2 4.88989 -2 10.0976H2C2 7.03658 4.40306 4.47592 7.49698 4.22191L7.16969 0.235328ZM-2 10.0976C-2 15.5818 2.50826 20 8 20V16C4.67097 16 2 13.3265 2 10.0976H-2ZM8 20C13.4917 20 18 15.5818 18 10.0976H14C14 13.3265 11.329 16 8 16V20ZM18 10.0976C18 7.65368 17.097 5.4198 15.6217 3.69904L12.5849 6.30258C13.4716 7.33673 14 8.6581 14 10.0976H18ZM15.5096 6.42292L16.3203 5.62119L13.5078 2.77697L12.697 3.5787L15.5096 6.42292ZM16.3007 5.64039C16.6871 5.26866 16.9539 4.78726 17.062 4.25769L13.1429 3.45731C13.1979 3.18774 13.3334 2.94445 13.5275 2.75777L16.3007 5.64039ZM17.062 4.25769C17.1702 3.72797 17.1137 3.17861 16.9011 2.68262L13.2246 4.25838C13.1167 4.00663 13.0878 3.72705 13.1429 3.45731L17.062 4.25769ZM16.9011 2.68262C16.6887 2.18691 16.3315 1.77025 15.8803 1.48409L13.7379 4.86203C13.5127 4.71916 13.3324 4.50984 13.2246 4.25838L16.9011 2.68262ZM15.8803 1.48409C15.4293 1.1981 14.904 1.05463 14.3728 1.06975L14.4866 5.06813C14.2237 5.07561 13.9629 5.00472 13.7379 4.86203L15.8803 1.48409ZM14.3721 1.06977C13.6872 1.08948 13.0321 1.37166 12.5468 1.86406L15.3959 4.67168C15.1523 4.91888 14.8259 5.05836 14.4872 5.06811L14.3721 1.06977ZM12.5666 1.84425L11.755 2.64513L14.5645 5.49236L15.3761 4.69149L12.5666 1.84425ZM14.443 2.53474C12.8995 1.24351 10.9574 0.409956 8.83031 0.235328L8.50302 4.22191C9.78561 4.32721 10.9502 4.82787 11.8764 5.60274L14.443 2.53474ZM10.6667 2.22862V1.31713H6.66667V2.22862H10.6667ZM8.66667 3.31713H9.11111V-0.682866H8.66667V3.31713ZM9.08317 3.31694C9.4331 3.32183 9.78104 3.25801 10.107 3.12861L8.63127 -0.589203C8.79328 -0.653514 8.96581 -0.685091 9.13905 -0.682671L9.08317 3.31694ZM10.107 3.12861C10.433 2.99921 10.7314 2.80645 10.9841 2.56035L8.19323 -0.305184C8.3201 -0.428744 8.4692 -0.524874 8.63127 -0.589203L10.107 3.12861ZM10.9841 2.56035C11.2368 2.31419 11.4389 2.01952 11.5773 1.69277L7.89398 0.1328C7.96417 -0.0329276 8.06631 -0.181576 8.19323 -0.305184L10.9841 2.56035ZM11.5773 1.69277C11.7157 1.36597 11.7873 1.01436 11.7873 0.6586H7.78727C7.78727 0.477386 7.82377 0.298582 7.89398 0.1328L11.5773 1.69277ZM11.7873 0.6586C11.7873 0.302841 11.7157 -0.0487672 11.5773 -0.37557L7.89398 1.1844C7.82377 1.01862 7.78727 0.839814 7.78727 0.6586H11.7873ZM11.5773 -0.37557C11.4389 -0.702318 11.2368 -0.996993 10.9841 -1.24315L8.19323 1.62238C8.06631 1.49878 7.96417 1.35013 7.89398 1.1844L11.5773 -0.37557ZM10.9841 -1.24315C10.7314 -1.48925 10.433 -1.682 10.107 -1.81141L8.63127 1.9064C8.4692 1.84207 8.3201 1.74594 8.19323 1.62238L10.9841 -1.24315ZM10.107 -1.81141C9.78104 -1.94081 9.4331 -2.00463 9.08317 -1.99974L9.13905 1.99987C8.96581 2.00229 8.79328 1.97071 8.63127 1.9064L10.107 -1.81141ZM9.11111 -1.99993H6.88889V2.00007H9.11111V-1.99993ZM7.68176 5.50217C7.8943 5.52778 8.10917 5.52778 8.32172 5.50217L7.84321 1.5309C7.94852 1.51821 8.05495 1.51821 8.16026 1.5309L7.68176 5.50217ZM8.05841 5.51639C9.32598 5.53164 10.4581 6.03387 11.2843 6.8375L14.0733 3.97014C12.5313 2.47027 10.4252 1.54457 8.10652 1.51668L8.05841 5.51639ZM11.1711 6.7179C11.2583 6.81788 11.3526 6.9111 11.4534 6.99682L14.0448 3.94973C14.0953 3.99267 14.1427 4.03945 14.1865 4.08974L11.1711 6.7179ZM11.3335 6.88602C12.1623 7.71656 12.6667 8.8462 12.6667 10.0976H16.6667C16.6667 7.73837 15.7071 5.60601 14.1648 4.06053L11.3335 6.88602ZM12.6667 10.0976C12.6667 12.6147 10.6084 14.6829 8 14.6829V18.6829C12.7712 18.6829 16.6667 14.87 16.6667 10.0976H12.6667ZM8 14.6829C5.39156 14.6829 3.33333 12.6147 3.33333 10.0976H-0.666667C-0.666667 14.87 3.22885 18.6829 8 18.6829V14.6829ZM3.33333 10.0976C3.33333 7.60038 5.36096 5.54616 7.94405 5.5164L7.89796 1.51667C3.1755 1.57108 -0.666667 5.35792 -0.666667 10.0976H3.33333ZM10.8183 4.58023C10.1334 4.59995 9.47823 4.88212 8.993 5.37453L11.8421 8.18215C11.5985 8.42935 11.272 8.56883 10.9334 8.57858L10.8183 4.58023ZM9.01203 5.35547L6.93824 7.40396L9.74926 10.2497L11.823 8.2012L9.01203 5.35547ZM8.86351 6.89555C8.58506 6.8206 8.29815 6.78199 8.00999 6.78055L7.99001 10.7805C7.93412 10.7802 7.87833 10.7727 7.82399 10.7581L8.86351 6.89555ZM8 6.78052C7.12381 6.78052 6.27864 7.12411 5.65168 7.74342L8.4627 10.5891C8.33584 10.7145 8.16894 10.7805 8 10.7805V6.78052ZM5.65168 7.74342C5.0239 8.36355 4.66667 9.20987 4.66667 10.0976H8.66667C8.66667 10.2867 8.59039 10.463 8.4627 10.5891L5.65168 7.74342ZM4.66667 10.0976C4.66667 10.9853 5.0239 11.8316 5.65168 12.4518L8.4627 9.60603C8.59039 9.73217 8.66667 9.90849 8.66667 10.0976H4.66667ZM5.65168 12.4518C6.27864 13.0711 7.12381 13.4147 8 13.4147V9.41466C8.16894 9.41466 8.33584 9.48072 8.4627 9.60603L5.65168 12.4518ZM8.00104 13.4147C8.50806 13.4144 9.00913 13.299 9.46579 13.0764L7.71297 9.48091C7.80301 9.43701 7.90077 9.41471 7.99896 9.41466L8.00104 13.4147ZM9.46579 13.0764C9.92253 12.8537 10.3236 12.5292 10.6367 12.1261L7.47762 9.67249C7.54186 9.58978 7.62284 9.52484 7.71297 9.48091L9.46579 13.0764ZM10.6367 12.1261C10.9499 11.7229 11.1663 11.2521 11.2676 10.7498L7.34639 9.95963C7.36779 9.85342 7.4133 9.75531 7.47762 9.67249L10.6367 12.1261ZM11.2676 10.7498C11.3688 10.2475 11.3517 9.72876 11.2178 9.2343L7.35689 10.2801C7.32863 10.1757 7.32497 10.0659 7.34639 9.95963L11.2676 10.7498ZM10.6928 11.18L12.7658 9.13241L9.95473 6.28668L7.88182 8.33431L10.6928 11.18ZM12.7468 9.15086C13.1332 8.77912 13.4 8.29772 13.5082 7.76816L9.58908 6.96778C9.64413 6.69821 9.77961 6.45492 9.97365 6.26824L12.7468 9.15086ZM13.5082 7.76816C13.6164 7.23843 13.5599 6.68907 13.3473 6.19309L9.67076 7.76884C9.56287 7.5171 9.53399 7.23752 9.58908 6.96778L13.5082 7.76816ZM13.3473 6.19309C13.1349 5.69739 12.7777 5.28072 12.3264 4.99455L10.1841 8.3725C9.95884 8.22962 9.77854 8.0203 9.67076 7.76884L13.3473 6.19309ZM12.3264 4.99455C11.8755 4.70857 11.3502 4.5651 10.819 4.58021L10.9327 8.5786C10.6699 8.58607 10.4091 8.51519 10.1841 8.3725L12.3264 4.99455Z" fill="black" mask="url(#path-1-inside-1_146_214)"/>
</svg>
