<svg width="24" height="24" viewBox="0 0 24 24" fill="none" xmlns="http://www.w3.org/2000/svg">
<path d="M4.00004 0C1.80666 0 0 1.80666 0 4.00004V20.0002C0 22.1936 1.80666 24.0003 4.00004 24.0003H15.3335C17.1842 24.0003 18.8316 22.7872 19.2919 20.9989C19.3355 20.8293 19.3452 20.6527 19.3206 20.4793C19.296 20.3059 19.2374 20.1391 19.1483 19.9883C19.0592 19.8375 18.9413 19.7058 18.8013 19.6006C18.6612 19.4954 18.5019 19.4188 18.3322 19.3752C18.1626 19.3316 17.986 19.3218 17.8126 19.3465C17.6392 19.3711 17.4724 19.4296 17.3216 19.5187C17.1708 19.6079 17.0391 19.7258 16.9339 19.8658C16.8287 20.0059 16.7521 20.1652 16.7085 20.3349C16.5768 20.8466 15.9682 21.3336 15.3335 21.3336H4.00004C3.24806 21.3336 2.6667 20.7522 2.6667 20.0002V4.00004C2.6667 3.24806 3.24806 2.6667 4.00004 2.6667H15.3335C15.9682 2.6667 16.5768 3.1537 16.7085 3.6654C16.7521 3.83503 16.8287 3.99441 16.9339 4.13443C17.0391 4.27446 17.1708 4.3924 17.3216 4.48151C17.4724 4.57062 17.6392 4.62916 17.8126 4.65379C17.986 4.67842 18.1626 4.66865 18.3322 4.62505C18.5019 4.58145 18.6612 4.50486 18.8013 4.39966C18.9413 4.29447 19.0592 4.16272 19.1483 4.01194C19.2374 3.86117 19.296 3.69431 19.3206 3.52091C19.3452 3.34751 19.3355 3.17096 19.2919 3.00133C18.8316 1.21301 17.1842 0 15.3335 0H4.00004ZM18.6525 6.65372C18.3874 6.65405 18.1284 6.7334 17.9086 6.88166C17.6888 7.02991 17.5181 7.24032 17.4185 7.48602C17.3188 7.73172 17.2947 8.00155 17.3491 8.26103C17.4036 8.52052 17.5341 8.75788 17.7241 8.9428L19.4481 10.6668H7.33341C7.15673 10.6643 6.98131 10.6969 6.81735 10.7628C6.65339 10.8287 6.50416 10.9265 6.37833 11.0506C6.2525 11.1746 6.15259 11.3225 6.08439 11.4855C6.01619 11.6485 5.98107 11.8234 5.98107 12.0001C5.98107 12.1768 6.01619 12.3518 6.08439 12.5148C6.15259 12.6778 6.2525 12.8256 6.37833 12.9497C6.50416 13.0737 6.65339 13.1716 6.81735 13.2374C6.98131 13.3033 7.15673 13.336 7.33341 13.3335H19.4481L17.7241 15.0575C17.5962 15.1803 17.494 15.3275 17.4236 15.4903C17.3533 15.6532 17.3161 15.8284 17.3143 16.0058C17.3125 16.1832 17.3461 16.3591 17.4131 16.5234C17.4802 16.6876 17.5793 16.8368 17.7048 16.9623C17.8302 17.0877 17.9794 17.1869 18.1436 17.2539C18.3079 17.321 18.4839 17.3546 18.6612 17.3528C18.8386 17.351 19.0139 17.3138 19.1767 17.2434C19.3396 17.173 19.4867 17.0709 19.6096 16.9429L23.6096 12.9428C23.8596 12.6928 24 12.3537 24 12.0001C24 11.6466 23.8596 11.3075 23.6096 11.0574L19.6096 7.05737C19.4852 6.92948 19.3364 6.82786 19.172 6.75853C19.0076 6.6892 18.831 6.65355 18.6525 6.65372Z" fill="#EF4444"/>
</svg>
