<svg width="15" height="17" viewBox="0 0 15 17" fill="none" xmlns="http://www.w3.org/2000/svg">
<path d="M1.04167 0C0.473502 0 0 0.536645 0 1.18057V2.63969C0 3.72424 0.439782 4.75008 1.19141 5.42142L5.41667 9.19465V16.2919C5.41672 16.422 5.44838 16.5496 5.50817 16.6606C5.56796 16.7717 5.65357 16.8619 5.75562 16.9214C5.85767 16.981 5.97221 17.0075 6.08669 16.9982C6.20117 16.9888 6.31117 16.9439 6.40462 16.8684L9.32129 14.5072C9.4023 14.4417 9.46835 14.3552 9.51392 14.255C9.5595 14.1547 9.5833 14.0436 9.58333 13.9308V9.19373L13.8086 5.42142C14.5602 4.75008 15 3.72424 15 2.63969V1.18057C15 0.536645 14.5265 0 13.9583 0H1.04167ZM1.25 1.41669H13.75V2.63969C13.75 3.29106 13.4872 3.90472 13.0355 4.30818L8.86963 8.02791H6.13037L1.96452 4.30818C1.51281 3.90472 1.25 3.29106 1.25 2.63969V1.41669ZM6.66667 9.4446H8.33333V13.5665L6.66667 14.9158V9.4446Z" fill="black"/>
</svg>
