<svg width="36" height="39" viewBox="0 0 36 39" fill="none" xmlns="http://www.w3.org/2000/svg">
<path d="M17.9512 0.000725846C17.6313 0.0116484 17.3234 0.12457 17.0723 0.322991L2.85938 11.5203C1.05548 12.9419 0 15.1142 0 17.4109V36.5007C0 37.8643 1.13641 39.0007 2.5 39.0007H12.5C13.8636 39.0007 15 37.8643 15 36.5007V26.5007C15 26.2057 15.205 26.0007 15.5 26.0007H20.5C20.795 26.0007 21 26.2057 21 26.5007V36.5007C21 37.8643 22.1364 39.0007 23.5 39.0007H33.5C34.8636 39.0007 36 37.8643 36 36.5007V17.4109C36 15.1142 34.9445 12.9419 33.1406 11.5203L18.9277 0.322991C18.6504 0.103867 18.3045 -0.0102654 17.9512 0.000725846ZM18 3.41088L31.2852 13.8777C32.3693 14.732 33 16.0315 33 17.4109V36.0007H24V26.5007C24 24.5858 22.415 23.0007 20.5 23.0007H15.5C13.585 23.0007 12 24.5858 12 26.5007V36.0007H3V17.4109C3 16.0315 3.63074 14.732 4.71484 13.8777L18 3.41088Z" fill="black"/>
</svg>
