<svg width="23" height="22" viewBox="0 0 23 22" fill="#ffffff" xmlns="http://www.w3.org/2000/svg">
<path d="M10.3488 8.59756C10.3488 8.29254 10.4699 8.00002 10.6856 7.78434C10.9013 7.56865 11.1938 7.44748 11.4988 7.44748C11.8039 7.44748 12.0964 7.56865 12.3121 7.78434C12.5278 8.00002 12.6489 8.29254 12.6489 8.59756V10.8977C12.6489 11.2027 12.5278 11.4953 12.3121 11.7109C12.0964 11.9266 11.8039 12.0478 11.4988 12.0478C11.1938 12.0478 10.9013 11.9266 10.6856 11.7109C10.4699 11.4953 10.3488 11.2027 10.3488 10.8977V8.59756ZM11.4988 13.7729C11.0413 13.7729 10.6025 13.9547 10.279 14.2782C9.95548 14.6017 9.77373 15.0405 9.77373 15.498C9.77373 15.9556 9.95548 16.3944 10.279 16.7179C10.6025 17.0414 11.0413 17.2232 11.4988 17.2232C11.9564 17.2232 12.3952 17.0414 12.7187 16.7179C13.0422 16.3944 13.224 15.9556 13.224 15.498C13.224 15.0405 13.0422 14.6017 12.7187 14.2782C12.3952 13.9547 11.9564 13.7729 11.4988 13.7729ZM9.69093 1.60279C9.87195 1.28271 10.1347 1.01642 10.4524 0.831149C10.77 0.645874 11.1311 0.548248 11.4988 0.548248C11.8666 0.548248 12.2277 0.645874 12.5453 0.831149C12.863 1.01642 13.1257 1.28271 13.3068 1.60279L22.719 18.0926C23.5195 19.4957 22.5143 21.2484 20.9088 21.2484H2.09121C0.485696 21.2484 -0.519472 19.4957 0.280983 18.0926L9.69323 1.60049L9.69093 1.60279ZM11.4988 3.12089L2.48913 18.9092H20.5086L11.4988 3.12089Z" fill="#6B7280"/>
</svg>
