<svg width="40" height="37" viewBox="0 0 40 37" fill="none" xmlns="http://www.w3.org/2000/svg">
<path d="M39.3891 30.2546L23.9247 2.32497C23.1186 0.869868 21.6442 0 19.9801 0C18.316 0 16.8417 0.869868 16.0356 2.32497L0.57113 30.2546C-0.210984 31.6678 -0.189008 33.3406 0.632061 34.7318C1.45113 36.122 2.90349 36.9519 4.51666 36.9519H35.4446C37.0568 36.9519 38.5091 36.122 39.3292 34.7318C40.1483 33.3416 40.1712 31.6678 39.3891 30.2546ZM18.4818 12.4838C18.4818 11.6558 19.1531 10.9857 19.9801 10.9857C20.8072 10.9857 21.4784 11.6558 21.4784 12.4838V22.4708C21.4784 23.2987 20.8072 23.9688 19.9801 23.9688C19.1531 23.9688 18.4818 23.2987 18.4818 22.4708V12.4838ZM19.9801 30.9597C18.8764 30.9597 17.9824 30.0659 17.9824 28.9623C17.9824 27.8587 18.8764 26.9649 19.9801 26.9649C21.0839 26.9649 21.9779 27.8587 21.9779 28.9623C21.9779 30.0659 21.0839 30.9597 19.9801 30.9597Z" fill="black"/>
</svg>
