<svg width="40" height="37" viewBox="0 0 40 37" fill="none" xmlns="http://www.w3.org/2000/svg">
<path d="M19.979 0C18.4245 0 16.87 0.758005 16.0297 2.27539L0.549263 30.2422C-1.08336 33.192 1.12704 36.9473 4.49848 36.9473H35.4614C38.8328 36.9473 41.0432 33.192 39.4106 30.2422L23.9282 2.27539C23.0879 0.758005 21.5334 0 19.979 0ZM19.979 2.89648C20.4875 2.89648 20.9955 3.1729 21.3032 3.72852L36.7856 31.6953C37.379 32.7675 36.6839 33.9473 35.4614 33.9473H4.49848C3.27593 33.9473 2.58088 32.7675 3.17426 31.6953L18.6547 3.72852C18.9624 3.1729 19.4704 2.89648 19.979 2.89648ZM19.9555 10.9258C19.558 10.932 19.1793 11.0957 18.9024 11.381C18.6256 11.6663 18.4732 12.0498 18.479 12.4473V22.4473C18.4761 22.646 18.5129 22.8434 18.587 23.0278C18.6611 23.2123 18.7711 23.3802 18.9107 23.5217C19.0503 23.6633 19.2166 23.7757 19.4 23.8524C19.5834 23.9291 19.7802 23.9686 19.979 23.9686C20.1777 23.9686 20.3745 23.9291 20.5579 23.8524C20.7413 23.7757 20.9076 23.6633 21.0472 23.5217C21.1868 23.3802 21.2968 23.2123 21.3709 23.0278C21.445 22.8434 21.4818 22.646 21.479 22.4473V12.4473C21.4818 12.2465 21.4444 12.0472 21.3688 11.8612C21.2932 11.6751 21.1811 11.5062 21.039 11.3643C20.897 11.2224 20.7279 11.1105 20.5417 11.0352C20.3556 10.9598 20.1563 10.9226 19.9555 10.9258ZM19.979 26.9473C19.4485 26.9473 18.9398 27.158 18.5647 27.5331C18.1897 27.9081 17.979 28.4168 17.979 28.9473C17.979 29.4777 18.1897 29.9864 18.5647 30.3615C18.9398 30.7366 19.4485 30.9473 19.979 30.9473C20.5094 30.9473 21.0181 30.7366 21.3932 30.3615C21.7682 29.9864 21.979 29.4777 21.979 28.9473C21.979 28.4168 21.7682 27.9081 21.3932 27.5331C21.0181 27.158 20.5094 26.9473 19.979 26.9473Z" fill="black"/>
</svg>
