<svg width="13" height="17" viewBox="0 0 13 17" fill="none" xmlns="http://www.w3.org/2000/svg">
<path d="M5.87109 0.000405348C5.76936 0.00353996 5.66977 0.0314185 5.58036 0.081791C5.49094 0.132163 5.4142 0.203619 5.35633 0.29039C5.35633 0.29039 4.67405 1.31639 3.84926 2.48148C3.02446 3.64658 2.01976 4.97865 1.54258 5.44616C0.63916 6.33153 0 7.53613 0 8.8997V11.8416C0 14.6826 2.23584 17 4.97682 17H9.01879C10.6496 17 12.0352 15.7323 12.2392 14.0555L12.4649 12.383L12.8283 9.69168L12.9771 8.59482C13.176 7.12268 12.0536 5.78608 10.6197 5.78608H6.95385C7.25346 5.01703 7.47375 4.32075 7.62751 3.53717C7.6278 3.53717 7.62808 3.53717 7.62836 3.53717C7.71833 3.07812 7.79403 2.71798 7.79403 2.33518C7.79403 1.41276 7.33958 0.750469 6.89891 0.419175C6.45822 0.0878815 6.00041 0.00916617 6.00041 0.00916622C5.9577 0.00178243 5.91437 -0.00115246 5.87109 0.000405348ZM6.11875 1.50027C6.12798 1.50676 6.12716 1.50201 6.1365 1.50903C6.3229 1.64917 6.49573 1.81772 6.49573 2.33518C6.49573 2.5032 6.44461 2.81397 6.35542 3.26909C6.19602 4.08136 6.0151 4.71431 5.68006 5.52501C5.68006 5.5253 5.68006 5.52559 5.68006 5.52589C5.5394 5.86738 5.55337 6.2529 5.72571 6.57194C5.89804 6.89095 6.2658 7.13175 6.65379 7.13175H10.6197C11.2882 7.13175 11.7834 7.7219 11.6906 8.40821L11.5427 9.50595L11.1792 12.1973L10.9527 13.8759C10.9521 13.8794 10.9516 13.8829 10.951 13.8864C10.8283 14.9022 10.0061 15.6543 9.01879 15.6543H4.97682C2.93745 15.6543 1.2983 13.9554 1.2983 11.8416V8.8997C1.2983 7.97204 1.73303 7.11115 2.43431 6.42388C3.11132 5.76058 4.05789 4.46129 4.89567 3.27785C5.56544 2.33175 5.91451 1.8049 6.11875 1.50027Z" fill="#6B7280"/>
</svg>
