<svg width="17" height="24" viewBox="0 0 17 24" fill="none" xmlns="http://www.w3.org/2000/svg">
<path d="M8.34783 0C5.47575 0 3.13043 2.34531 3.13043 5.21739V9.13043H3.15285C1.2349 10.6616 0 13.0143 0 15.6522C0 20.2533 3.74672 24 8.34783 24C12.9489 24 16.6957 20.2533 16.6957 15.6522C16.6957 13.0143 15.4608 10.6616 13.5428 9.13043H13.5652V5.21739C13.5652 2.34531 11.2199 0 8.34783 0ZM8.34783 1.56522C10.3738 1.56522 12 3.19139 12 5.21739V8.15829C10.8949 7.61718 9.65838 7.30435 8.34783 7.30435C7.03727 7.30435 5.80074 7.61718 4.69565 8.15829V5.21739C4.69565 3.19139 6.32182 1.56522 8.34783 1.56522ZM8.34783 8.86957C12.103 8.86957 15.1304 11.897 15.1304 15.6522C15.1304 19.4074 12.103 22.4348 8.34783 22.4348C4.59262 22.4348 1.56522 19.4074 1.56522 15.6522C1.56522 11.897 4.59262 8.86957 8.34783 8.86957ZM8.34783 12C7.74987 12.0017 7.17066 12.2089 6.70718 12.5867C6.24369 12.9645 5.92407 13.49 5.80183 14.0754C5.67958 14.6607 5.76213 15.2702 6.03565 15.802C6.30918 16.3337 6.75707 16.7553 7.30435 16.9963V18.7826C7.30435 19.3591 7.7713 19.8261 8.34783 19.8261C8.92435 19.8261 9.3913 19.3591 9.3913 18.7826V16.9983C9.9398 16.7581 10.389 16.3365 10.6634 15.8043C10.9379 15.2721 11.0209 14.6617 10.8985 14.0756C10.7761 13.4894 10.4558 12.9632 9.99138 12.5853C9.52694 12.2073 8.94661 12.0007 8.34783 12Z" fill="#6366F1"/>
</svg>
