<svg width="16" height="9" viewBox="0 0 16 9" fill="none" xmlns="http://www.w3.org/2000/svg">
<path d="M8 0C7.89006 0 7.78011 0.0265069 7.68056 0.0807292L0.347222 4.08073C0.133 4.19717 0 4.4218 0 4.6658V7.77691C0 8.01202 0.124167 8.22983 0.326389 8.34983C0.529056 8.47027 0.779889 8.47576 0.986111 8.36198L8 4.53646L15.0139 8.36198C15.1139 8.41665 15.2236 8.44358 15.3333 8.44358C15.4511 8.44358 15.5687 8.41205 15.6736 8.34983C15.8758 8.22983 16 8.01202 16 7.77691V4.6658C16 4.4218 15.8666 4.19717 15.6528 4.08073L8.31944 0.0807292C8.22011 0.0265069 8.10994 0 8 0Z" fill="#38BDF8"/>
</svg>
