<svg width="16" height="9" viewBox="0 0 16 9" fill="none" xmlns="http://www.w3.org/2000/svg">
<path d="M0.58601 4.52003L0.586648 4.51968L7.91971 0.519827C7.91973 0.519813 7.91976 0.5198 7.91978 0.519786C7.94317 0.507062 7.97043 0.5 8 0.5C8.02986 0.5 8.05714 0.507191 8.07988 0.519602L8.08002 0.519677L15.4134 4.51968L15.4136 4.51982C15.4664 4.54858 15.5 4.60465 15.5 4.6658V7.77691C15.5 7.83529 15.4691 7.88979 15.4185 7.91983C15.3912 7.936 15.3618 7.94358 15.3333 7.94358C15.3057 7.94358 15.2787 7.93692 15.2537 7.92325L15.2533 7.92302L8.23942 4.0975L8 3.96692L7.76059 4.0975L0.746696 7.92302L0.746694 7.92302L0.744572 7.92419C0.695934 7.95103 0.634199 7.95112 0.581833 7.92L0.581548 7.91983C0.530915 7.88979 0.5 7.83529 0.5 7.77691V4.6658C0.5 4.60416 0.533542 4.54854 0.58601 4.52003Z" stroke="black"/>
</svg>
