<svg width="16" height="16" viewBox="0 0 16 16" fill="none" xmlns="http://www.w3.org/2000/svg">
<path d="M8 0C7.89006 0 7.78011 0.0265069 7.68056 0.0807292L0.347222 4.08073C0.133 4.19717 0 4.4218 0 4.6658V7.77691C0 8.01202 0.124167 8.22983 0.326389 8.34983C0.529056 8.47027 0.779889 8.47576 0.986111 8.36198L8 4.53646L15.0139 8.36198C15.1139 8.41665 15.2236 8.44358 15.3333 8.44358C15.4511 8.44358 15.5687 8.41205 15.6736 8.34983C15.8758 8.22983 16 8.01202 16 7.77691V4.6658C16 4.4218 15.8666 4.19717 15.6528 4.08073L8.31944 0.0807292C8.22011 0.0265069 8.10994 0 8 0ZM8 6.66667C7.89006 6.66667 7.78011 6.69317 7.68056 6.7474L0.347222 10.7474C0.133 10.8638 0 11.0885 0 11.3325V14.4436C0 14.6787 0.124167 14.8965 0.326389 15.0165C0.529056 15.1369 0.779889 15.1424 0.986111 15.0286L8 11.2031L15.0139 15.0286C15.1139 15.0833 15.2236 15.1102 15.3333 15.1102C15.4511 15.1102 15.5687 15.0787 15.6736 15.0165C15.8758 14.8965 16 14.6787 16 14.4436V11.3325C16 11.0885 15.8666 10.8638 15.6528 10.7474L8.31944 6.7474C8.22011 6.69317 8.10994 6.66667 8 6.66667Z" fill="#EAB308"/>
</svg>
