<svg width="16" height="16" viewBox="0 0 16 16" fill="none" xmlns="http://www.w3.org/2000/svg">
<path d="M0.58601 4.52003L0.586648 4.51968L7.91971 0.519827C7.91973 0.519813 7.91976 0.5198 7.91978 0.519786C7.94317 0.507062 7.97043 0.5 8 0.5C8.02986 0.5 8.05714 0.507191 8.07988 0.519602L8.08002 0.519677L15.4134 4.51968L15.4136 4.51982C15.4664 4.54858 15.5 4.60465 15.5 4.6658V7.77691C15.5 7.83529 15.4691 7.88979 15.4185 7.91983C15.3912 7.936 15.3618 7.94358 15.3333 7.94358C15.3057 7.94358 15.2787 7.93692 15.2537 7.92325L15.2533 7.92303L8.23942 4.0975L8 3.96692L7.76059 4.0975L0.746696 7.92303L0.746694 7.92302L0.744572 7.92419C0.695934 7.95103 0.634199 7.95112 0.581833 7.92L0.581548 7.91983C0.530915 7.88979 0.5 7.83529 0.5 7.77691V4.6658C0.5 4.60416 0.533542 4.54854 0.58601 4.52003ZM0.58601 11.1867L0.586648 11.1863L7.91971 7.18649C7.91973 7.18648 7.91976 7.18647 7.91978 7.18645C7.94317 7.17373 7.97043 7.16667 8 7.16667C8.02986 7.16667 8.05714 7.17386 8.07988 7.18627L8.08002 7.18634L15.4134 11.1863L15.4136 11.1865C15.4664 11.2152 15.5 11.2713 15.5 11.3325V14.4436C15.5 14.502 15.4691 14.5565 15.4185 14.5865C15.3912 14.6027 15.3618 14.6102 15.3333 14.6102C15.3057 14.6102 15.2787 14.6036 15.2537 14.5899L15.2533 14.5897L8.23942 10.7642L8 10.6336L7.76059 10.7642L0.746694 14.5897L0.744572 14.5909C0.695934 14.6177 0.634199 14.6178 0.581833 14.5867L0.581549 14.5865C0.530915 14.5565 0.5 14.502 0.5 14.4436V11.3325C0.5 11.2708 0.533542 11.2152 0.58601 11.1867Z" stroke="black"/>
</svg>
