<svg width="15" height="17" viewBox="0 0 15 17" fill="none" xmlns="http://www.w3.org/2000/svg">
<path d="M7.46845 0.000553137C7.25665 0.00750046 7.05498 0.0857723 6.90167 0.220529L0.267093 6.0644C0.142255 6.17441 0.0560344 6.31632 0.0195322 6.47184C-0.01697 6.62737 -0.00208187 6.78939 0.0622789 6.93706C0.12664 7.08472 0.237527 7.21127 0.380663 7.3004C0.5238 7.38953 0.692632 7.43717 0.865422 7.43717H14.1346C14.3074 7.43717 14.4762 7.38953 14.6193 7.3004C14.7625 7.21127 14.8734 7.08472 14.9377 6.93706C15.0021 6.78939 15.017 6.62737 14.9805 6.47184C14.944 6.31632 14.8577 6.17441 14.7329 6.0644L8.09833 0.220529C8.01464 0.146951 7.91578 0.0895731 7.80759 0.0517897C7.6994 0.0140063 7.58408 -0.00341584 7.46845 0.000553137ZM7.5 1.5L13 6.0644L2 6L7.5 1.5ZM0.865422 9.56222C0.692632 9.56223 0.5238 9.60987 0.380663 9.699C0.237527 9.78813 0.12664 9.91467 0.0622789 10.0623C-0.00208187 10.21 -0.01697 10.372 0.0195322 10.5276C0.0560344 10.6831 0.142255 10.825 0.267093 10.935L6.90167 16.7789C7.06274 16.9208 7.27707 17 7.5 17C7.72293 17 7.93726 16.9208 8.09833 16.7789L14.7329 10.935C14.8577 10.825 14.944 10.6831 14.9805 10.5276C15.017 10.372 15.0021 10.21 14.9377 10.0623C14.8734 9.91467 14.7625 9.78813 14.6193 9.699C14.4762 9.60987 14.3074 9.56223 14.1346 9.56222H0.865422ZM2 10.935L13 11L7.5 15.5L2 10.935Z" fill="black"/>
</svg>
