<svg width="27" height="27" viewBox="0 0 27 27" fill="none" xmlns="http://www.w3.org/2000/svg">
<path d="M4.125 0C1.86017 0 0 1.86017 0 4.125V22.875C0 25.1398 1.86017 27 4.125 27H22.875C25.1398 27 27 25.1398 27 22.875V4.125C27 1.86017 25.1398 0 22.875 0H4.125ZM4.125 2.25H22.875C23.9237 2.25 24.75 3.07633 24.75 4.125V22.875C24.75 23.9237 23.9237 24.75 22.875 24.75H4.125C3.07633 24.75 2.25 23.9237 2.25 22.875V4.125C2.25 3.07633 3.07633 2.25 4.125 2.25ZM13.4824 5.23389C13.1843 5.23854 12.9002 5.36134 12.6926 5.5753C12.485 5.78925 12.3707 6.07688 12.375 6.375V20.625C12.3729 20.7741 12.4004 20.9221 12.456 21.0604C12.5116 21.1988 12.5941 21.3247 12.6988 21.4308C12.8035 21.537 12.9282 21.6213 13.0658 21.6788C13.2033 21.7364 13.3509 21.766 13.5 21.766C13.6491 21.766 13.7967 21.7364 13.9342 21.6788C14.0718 21.6213 14.1965 21.537 14.3012 21.4308C14.4059 21.3247 14.4884 21.1988 14.544 21.0604C14.5996 20.9221 14.6271 20.7741 14.625 20.625V6.375C14.6272 6.22443 14.5991 6.07495 14.5424 5.93543C14.4857 5.79591 14.4016 5.66919 14.2951 5.56278C14.1885 5.45636 14.0617 5.37242 13.9221 5.31593C13.7825 5.25943 13.633 5.23153 13.4824 5.23389V5.23389ZM7.10742 9.73389C6.80931 9.73854 6.52523 9.86134 6.31759 10.0753C6.10995 10.2893 5.99572 10.5769 6 10.875V20.625C5.99789 20.7741 6.02543 20.9221 6.08102 21.0604C6.13661 21.1988 6.21915 21.3247 6.32382 21.4308C6.4285 21.537 6.55323 21.6213 6.69077 21.6788C6.82831 21.7364 6.97591 21.766 7.125 21.766C7.27409 21.766 7.4217 21.7364 7.55923 21.6788C7.69677 21.6213 7.8215 21.537 7.92618 21.4308C8.03085 21.3247 8.11339 21.1988 8.16898 21.0604C8.22457 20.9221 8.25211 20.7741 8.25 20.625V10.875C8.25216 10.7244 8.22407 10.5749 8.1674 10.4354C8.11072 10.2959 8.02662 10.1692 7.92007 10.0628C7.81352 9.95636 7.68669 9.87242 7.5471 9.81593C7.4075 9.75943 7.25799 9.73153 7.10742 9.73389V9.73389ZM19.8574 14.2339C19.5593 14.2385 19.2752 14.3613 19.0676 14.5753C18.86 14.7893 18.7457 15.0769 18.75 15.375V20.625C18.7479 20.7741 18.7754 20.9221 18.831 21.0604C18.8866 21.1988 18.9691 21.3247 19.0738 21.4308C19.1785 21.537 19.3032 21.6213 19.4408 21.6788C19.5783 21.7364 19.7259 21.766 19.875 21.766C20.0241 21.766 20.1717 21.7364 20.3092 21.6788C20.4468 21.6213 20.5715 21.537 20.6762 21.4308C20.7809 21.3247 20.8634 21.1988 20.919 21.0604C20.9746 20.9221 21.0021 20.7741 21 20.625V15.375C21.0022 15.2244 20.9741 15.0749 20.9174 14.9354C20.8607 14.7959 20.7766 14.6692 20.6701 14.5628C20.5635 14.4564 20.4367 14.3724 20.2971 14.3159C20.1575 14.2594 20.008 14.2315 19.8574 14.2339V14.2339Z" fill="#6366F1"/>
</svg>
