<svg width="39" height="33" viewBox="0 0 39 33" fill="none" xmlns="http://www.w3.org/2000/svg">
<path d="M35.3066 0.00383869C35.0319 0.0169805 34.7547 0.0641255 34.4785 0.14837L2.47852 9.92767C1.01118 10.3755 0 11.7433 0 13.2753V18.3144C0 19.8464 1.01118 21.2142 2.47852 21.662L8.20703 23.412C7.79477 27.1814 9.97492 30.8557 13.7324 31.9667C17.4416 33.0624 21.2132 31.2221 22.9512 27.9179L34.4785 31.4413L34.4766 31.4394C36.6866 32.1153 39 30.4042 39 28.0937V3.49603C39 1.76314 37.6996 0.367678 36.1172 0.0624324C35.8535 0.0115582 35.5813 -0.00930321 35.3066 0.00383869ZM11.0781 24.289L20.0918 27.0449C18.9085 28.8174 16.7445 29.7285 14.582 29.0898C12.3899 28.4416 11.0699 26.4546 11.0781 24.289Z" fill="black"/>
</svg>
