<svg width="11" height="20" viewBox="0 0 11 20" fill="none" xmlns="http://www.w3.org/2000/svg">
<path d="M2.66736 20L1.0007 20C0.679029 20 0.385696 19.8142 0.247362 19.5233C0.109029 19.2325 0.151528 18.8883 0.355695 18.6383L7.42403 10L0.355696 1.36083C0.151529 1.11167 0.109863 0.7675 0.247363 0.475833C0.384863 0.184166 0.679029 -4.51165e-07 1.0007 -4.37105e-07L2.66736 -3.64252e-07C2.91736 -3.53325e-07 3.15403 0.1125 3.31236 0.305833L10.8124 9.4725C11.0632 9.78 11.0632 10.2208 10.8124 10.5283L3.31236 19.695C3.15403 19.8875 2.91736 20 2.66736 20Z" fill="#E5E7EB"/>
</svg>
