<svg width="18" height="18" viewBox="0 0 18 18" fill="none" xmlns="http://www.w3.org/2000/svg">
<path d="M2.33341 0.666626C1.41258 0.666626 0.666748 1.41246 0.666748 2.33329V12.3333C0.666748 13.2541 1.41258 14 2.33341 14H12.3334C13.2542 14 14.0001 13.2541 14.0001 12.3333V2.33329C14.0001 1.41246 13.2542 0.666626 12.3334 0.666626H2.33341ZM2.33341 2.33329H12.3334V12.3333H2.33341V2.33329ZM15.6667 3.99996V15.6666H4.00008V17.3333H15.6667C16.5876 17.3333 17.3334 16.5875 17.3334 15.6666V3.99996H15.6667ZM10.0776 4.2441L6.50008 7.82158L4.58927 5.91077L3.41089 7.08915L6.50008 10.1783L11.2559 5.42249L10.0776 4.2441Z" fill="black"/>
</svg>
