<svg width="15" height="20" viewBox="0 0 15 20" fill="none" xmlns="http://www.w3.org/2000/svg">
<g clip-path="url(#clip0_50:822)">
<path d="M8.29653 9.98828L14.6715 15.3008C15.1121 15.668 15.1121 16.2617 14.6715 16.625L13.6121 17.5078C13.1715 17.875 12.459 17.875 12.0231 17.5078L7.49965 13.7461L2.98091 17.5117C2.54028 17.8789 1.82778 17.8789 1.39184 17.5117L0.327783 16.6289C-0.112842 16.2617 -0.112842 15.668 0.327783 15.3047L6.70278 9.99219C7.1434 9.6211 7.8559 9.6211 8.29653 9.98828ZM6.70278 2.48828L0.327783 7.80078C-0.112842 8.16797 -0.112842 8.76172 0.327783 9.125L1.38716 10.0078C1.82778 10.375 2.54028 10.375 2.97622 10.0078L7.49497 6.24219L12.0137 10.0078C12.4543 10.375 13.1668 10.375 13.6028 10.0078L14.6621 9.125C15.1028 8.75782 15.1028 8.16406 14.6621 7.80078L8.28715 2.48828C7.8559 2.12109 7.1434 2.12109 6.70278 2.48828Z" fill="#6B7280"/>
</g>
<defs>
<clipPath id="clip0_50:822">
<rect width="15" height="20" fill="white"/>
</clipPath>
</defs>
</svg>
