<svg width="18" height="18" viewBox="0 0 18 18" fill="none" xmlns="http://www.w3.org/2000/svg">
<path d="M9 0C4.0293 0 0 4.0293 0 9C0 13.9707 4.0293 18 9 18C13.9707 18 18 13.9707 18 9C18 4.0293 13.9707 0 9 0ZM9 1.8C12.9762 1.8 16.2 5.0238 16.2 9C16.2 10.4376 15.7729 11.773 15.0469 12.8971L14.3543 12.3609C12.9575 11.2836 10.3833 10.8 9 10.8C7.6167 10.8 5.0416 11.2836 3.6457 12.3609L2.95312 12.8988C2.22664 11.7745 1.8 10.4381 1.8 9C1.8 5.0238 5.0238 1.8 9 1.8ZM9 3.375C7.3872 3.375 6.075 4.6872 6.075 6.3C6.075 7.9128 7.3872 9.225 9 9.225C10.6128 9.225 11.925 7.9128 11.925 6.3C11.925 4.6872 10.6128 3.375 9 3.375ZM9 5.175C9.6201 5.175 10.125 5.6799 10.125 6.3C10.125 6.9201 9.6201 7.425 9 7.425C8.3799 7.425 7.875 6.9201 7.875 6.3C7.875 5.6799 8.3799 5.175 9 5.175ZM9 12.6C11.7906 12.6 13.2913 13.6516 13.9939 14.1785C12.699 15.4277 10.9412 16.2 9 16.2C7.05883 16.2 5.30101 15.4277 4.00605 14.1785C4.70871 13.6516 6.20936 12.6 9 12.6ZM3.64922 13.8059C3.75809 13.9258 3.86754 14.0453 3.9832 14.1574C3.8674 14.0448 3.75725 13.926 3.64922 13.8059ZM14.3209 13.8375C14.2222 13.946 14.1236 14.0551 14.0186 14.1574C14.1234 14.0558 14.2213 13.9455 14.3209 13.8375Z" fill="black"/>
</svg>
