<svg width="13" height="17" viewBox="0 0 13 17" fill="none" xmlns="http://www.w3.org/2000/svg">
<path d="M12.4668 6.67368C12.0497 6.21023 11.4936 5.97851 10.8911 5.97851H6.62734C6.53465 5.97851 6.4883 5.93216 6.44196 5.88582C6.39561 5.79313 6.39561 5.70044 6.44196 5.60775C6.81272 4.77354 7.04444 4.03202 7.22983 3.10512C7.36886 2.59532 7.41521 2.27091 7.41521 1.94649C7.41521 0.602485 6.39561 0.0926901 5.88582 0C5.79313 0 5.70044 1.31213e-07 5.65409 0.0926902C5.60775 0.139035 2.68801 4.35643 1.52939 5.51506C0.556141 6.44196 0 7.60058 0 8.75921V11.818C0 14.4596 2.17822 16.6379 4.86623 16.6379H9.17632C10.7057 16.6379 11.957 15.5256 12.1887 13.9962L12.9766 8.34211C13.0693 7.73962 12.8839 7.13713 12.4668 6.67368Z" fill="black"/>
</svg>
