<svg width="22" height="20" viewBox="0 0 22 20" fill="none" xmlns="http://www.w3.org/2000/svg">
<path d="M21.6857 16.3751L13.1717 1.25838C12.7279 0.470811 11.9162 0 11.0001 0C10.0839 0 9.2722 0.470811 8.82841 1.25838L0.314436 16.3751C-0.116157 17.14 -0.104059 18.0454 0.347982 18.7984C0.798922 19.5508 1.59852 20 2.48665 20H19.514C20.4016 20 21.2012 19.5508 21.6527 18.7984C22.1036 18.0459 22.1163 17.14 21.6857 16.3751ZM10.1752 6.75676C10.1752 6.30865 10.5447 5.94595 11.0001 5.94595C11.4554 5.94595 11.825 6.30865 11.825 6.75676V12.1622C11.825 12.6103 11.4554 12.973 11.0001 12.973C10.5447 12.973 10.1752 12.6103 10.1752 12.1622V6.75676ZM11.0001 16.7568C10.3924 16.7568 9.90021 16.273 9.90021 15.6757C9.90021 15.0784 10.3924 14.5946 11.0001 14.5946C11.6077 14.5946 12.0999 15.0784 12.0999 15.6757C12.0999 16.273 11.6077 16.7568 11.0001 16.7568Z" fill="white"/>
</svg>
