<svg width="22" height="25" viewBox="0 0 22 25" fill="none" xmlns="http://www.w3.org/2000/svg">
<path d="M2.75 0.93335C1.24208 0.93335 0 2.25824 0 3.86668V21.4667C0 23.0751 1.24208 24.4 2.75 24.4H13.4444V18.2074C13.4444 16.5755 14.6645 15.2741 16.1944 15.2741H22V3.86668C22 2.25824 20.7579 0.93335 19.25 0.93335H2.75ZM5.80556 6.14689H16.1944C16.7004 6.14689 17.1111 6.58494 17.1111 7.12467C17.1111 7.6644 16.7004 8.10245 16.1944 8.10245H5.80556C5.29956 8.10245 4.88889 7.6644 4.88889 7.12467C4.88889 6.58494 5.29956 6.14689 5.80556 6.14689ZM5.80556 10.7099H13.75C14.256 10.7099 14.6667 11.1479 14.6667 11.6876C14.6667 12.2274 14.256 12.6654 13.75 12.6654H5.80556C5.29956 12.6654 4.88889 12.2274 4.88889 11.6876C4.88889 11.1479 5.29956 10.7099 5.80556 10.7099ZM16.5 17.2296C15.8247 17.2296 15.2778 17.8131 15.2778 18.5333V23.8258L21.4617 17.2296H16.5Z" fill="white"/>
</svg>
