<svg width="20" height="20" viewBox="0 0 20 20" fill="none" xmlns="http://www.w3.org/2000/svg">
<path d="M10 0C4.48603 0 0 4.48604 0 10C0 15.514 4.48603 20 10 20C15.514 20 20 15.514 20 10C20 4.48604 15.514 0 10 0ZM10 1.5C11.5859 1.5 13.0631 1.93987 14.332 2.69238C14.2843 2.74211 14.2453 2.80215 14.2207 2.87207L14.1211 3.15527C14.0486 3.36077 14.1185 3.5897 14.293 3.7207L14.4668 3.85059C14.7333 4.05059 14.7333 4.45039 14.4668 4.65039L14.2471 4.81543C14.0956 4.92893 13.8931 4.94681 13.7236 4.8623L13.1055 4.55273C13.036 4.51773 12.9593 4.5 12.8818 4.5H11.6533C11.5073 4.5 11.3689 4.5643 11.2734 4.6748L10.1191 6.01953C9.99814 6.16053 9.96616 6.35825 10.0352 6.53125L10.1406 6.7959C10.2741 7.1294 10.705 7.21787 10.959 6.96387C10.959 6.96387 11.2812 6.81503 11.3887 6.33203C11.4332 6.13253 11.6226 6 11.8271 6H12.2998C12.4288 6 12.552 6.04967 12.6445 6.13867L12.8916 6.37402C13.0946 6.56802 13.0989 6.89134 12.9004 7.08984L12.5137 7.47559C12.4677 7.52159 12.413 7.55898 12.3525 7.58398L10.8145 8.22363C10.772 8.24113 10.7313 8.26447 10.6953 8.29297L9.30762 9.3916C9.21912 9.4616 9.10957 9.5 8.99707 9.5H8.75C8.336 9.5 8 9.836 8 10.25C8 10.664 8.336 11 8.75 11H8.86621C9.06571 11 9.26164 10.9453 9.43164 10.8408L10.4482 10.2197C10.6557 10.0927 10.9245 10.1339 11.085 10.3174L11.5322 10.8291C11.6272 10.9376 11.7647 11 11.9092 11H12C12.276 11 12.5 10.776 12.5 10.5V10.1973C12.5 10.0708 12.5478 9.94845 12.6338 9.85645L13.2051 9.24316C13.2426 9.20266 13.2865 9.16858 13.335 9.14258L14.2637 8.64453C14.5972 8.46603 15 8.70794 15 9.08594V9.5C15 9.776 14.776 10 14.5 10H14C13.724 10 13.5 10.224 13.5 10.5C13.5 10.776 13.724 11 14 11H14.7344C14.9004 11 15.0554 11.0827 15.1484 11.2207L16.2314 12.8232C16.3949 13.0652 16.73 13.1161 16.958 12.9336L17.3125 12.6504C17.431 12.5554 17.5 12.4118 17.5 12.2598V12C17.5 11.724 17.276 11.5 17 11.5C16.724 11.5 16.5 11.276 16.5 11C16.5 10.724 16.724 10.5 17 10.5H17.1797C17.2262 10.5 17.2724 10.4934 17.3174 10.4814L18.4922 10.1455C18.4576 12.194 17.7053 14.0614 16.4717 15.5098C16.4894 15.4555 16.5 15.3986 16.5 15.3408V15.043C16.5 14.743 16.257 14.5 15.957 14.5C15.774 14.5 15.6039 14.4079 15.5029 14.2549L14.4043 12.2891C14.2538 12.0586 13.9545 11.9781 13.708 12.1006L12.5537 12.7334C12.4257 12.7974 12.2766 12.8077 12.1406 12.7627L10.2744 12.0869C9.94041 11.9759 9.57959 11.9759 9.24609 12.0869L7.5498 12.7627C7.4133 12.8077 7.29985 12.9057 7.23535 13.0342L6.61133 14.2783C6.54033 14.4193 6.53473 14.583 6.59473 14.7285L7.18945 16.1641C7.27345 16.3671 7.47093 16.5 7.69043 16.5H8.72852C8.89952 16.5 9.06059 16.4192 9.16309 16.2832L9.31641 16.0791C9.53341 15.7896 9.96757 15.7896 10.1846 16.0791L10.3916 16.3555C10.4621 16.449 10.5 16.5632 10.5 16.6807V18.4746C10.3336 18.4843 10.1689 18.5 10 18.5C5.29669 18.5 1.5 14.7033 1.5 10C1.5 9.33072 1.58504 8.68283 1.73047 8.05859L2.52441 7.60352C2.59141 7.56502 2.66616 7.5459 2.74316 7.5459H3.05859C3.30259 7.5459 3.50098 7.34752 3.50098 7.10352V5.5332C3.50098 5.2892 3.69838 5.09082 3.94238 5.09082C4.13338 5.09082 4.3028 4.96861 4.3623 4.78711L5.15723 3.01367C5.56095 2.73363 5.99166 2.49281 6.44238 2.28516L5.52832 4.2793C5.41082 4.6338 5.67435 5 6.04785 5H7.16602C7.41052 5 7.64438 4.90347 7.81738 4.73047L8.8877 3.66016C8.9902 3.55766 9.04785 3.41894 9.04785 3.27344V3.04688C9.04785 2.74538 8.80298 2.5 8.50098 2.5H8.27441C8.12941 2.5 7.98972 2.55766 7.88672 2.66016L7.54785 3L7.54199 2.38184C7.54036 2.19198 7.44388 2.03618 7.30664 1.94043C8.1533 1.65859 9.0572 1.5 10 1.5ZM8.5 6C8.224 6 8 6.224 8 6.5V7C8 7.276 8.224 7.5 8.5 7.5C8.776 7.5 9 7.276 9 7V6.5C9 6.224 8.776 6 8.5 6Z" fill="#6366F1"/>
</svg>
